<mxfile host="app.diagrams.net" modified="2024-06-19T04:46:59.857Z" agent="Mozilla/5.0 (Macintosh; Intel Mac OS X 10_15_7) AppleWebKit/537.36 (KHTML, like Gecko) Chrome/125.0.0.0 Safari/537.36" version="24.5.5" etag="nyVGT2RU4NtdS8-obv7X" type="github">
  <diagram name="Page-1" id="gZu9SgrKK-3xxa6IzNcp">
    <mxGraphModel>
      <root>
        <mxCell id="0" />
        <mxCell id="1" parent="0" />
      </root>
    </mxGraphModel>
  </diagram>
</mxfile>
